<?xml version="1.0" encoding="UTF-8"?>
<svg width="24" height="24" viewBox="0 0 24 24" fill="none" xmlns="http://www.w3.org/2000/svg">
  <path d="M22 12C22 17.5228 17.5228 22 12 22C6.47715 22 2 17.5228 2 12C2 6.47715 6.47715 2 12 2C17.5228 2 22 6.47715 22 12Z" fill="#F7C948"/>
  <path d="M17 14.5V16.5C17 17.0523 16.5523 17.5 16 17.5H8C7.44772 17.5 7 17.0523 7 16.5V14.5M7 14.5H17M7 14.5L8.5 10.5H15.5L17 14.5M10 17.5V18.5M14 17.5V18.5M9 10.5V8.5C9 7.94772 9.44772 7.5 10 7.5H14C14.5523 7.5 15 7.94772 15 8.5V10.5" stroke="#2A2A2A" stroke-width="1.5" stroke-linecap="round" stroke-linejoin="round"/>
</svg> 