<?xml version="1.0" encoding="UTF-8"?>
<svg width="512" height="512" viewBox="0 0 512 512" fill="none" xmlns="http://www.w3.org/2000/svg">
  <rect width="512" height="512" fill="#1A1A1A"/>
  <circle cx="256" cy="256" r="200" fill="#F7C948"/>
  <path d="M256 156C200.772 156 156 200.772 156 256C156 311.228 200.772 356 256 356C311.228 356 356 311.228 356 256C356 200.772 311.228 156 256 156ZM256 326C217.399 326 186 294.601 186 256C186 217.399 217.399 186 256 186C294.601 186 326 217.399 326 256C326 294.601 294.601 326 256 326Z" fill="#1A1A1A"/>
  <path d="M256 206C228.386 206 206 228.386 206 256C206 283.614 228.386 306 256 306C283.614 306 306 283.614 306 256C306 228.386 283.614 206 256 206ZM256 286C239.458 286 226 272.542 226 256C226 239.458 239.458 226 256 226C272.542 226 286 239.458 286 256C286 272.542 272.542 286 256 286Z" fill="#1A1A1A"/>
</svg> 